<?xml version="1.0" encoding="utf-8"?>
<!DOCTYPE svg PUBLIC "-//W3C//DTD SVG 1.1//EN" "http://www.w3.org/Graphics/SVG/1.1/DTD/svg11.dtd">
<svg xmlns="http://www.w3.org/2000/svg" xmlns:xlink="http://www.w3.org/1999/xlink" version="1.1" id="Layer_1" x="0px" y="0px" viewBox="0 0 272.1 104" style="enable-background:new 0 0 272.1 104; height:15px;" xml:space="preserve">
    <style type="text/css">
        .st0 {
            fill: #ffffff;
        }
    </style>
	<g>
		<path class="st0" d="M0,12C0,5.2,5.3,0,12.1,0c6.7,0,12,5.2,12,12c0,7-5.3,12-12,12C5.3,24,0,19,0,12z M1.8,102V31.2h20.3V102H1.8z   "></path>
		<path class="st0" d="M106.9,66.6c0,21.4-15.2,37.2-35.2,37.2c-9.7,0-16.4-4.1-21.2-9.7v7.9H30.8V3.7h20.3v34.5   c4.8-5,11.4-8.8,20.5-8.8C91.6,29.4,106.9,45.3,106.9,66.6z M86.2,66.5C86.2,56.3,79,48,68.3,48c-10.7,0-18.1,8.4-18.1,18.5   c0,10.3,7.4,18.7,18.1,18.7C79,85.2,86.2,76.8,86.2,66.5z"></path>
		<path class="st0" d="M181.5,73.4h-52c2.2,7.7,8.3,13.3,19.2,13.3c7.6,0,16.4-3,22.1-6.8l8,13.8c-6.8,5.2-17.8,9.8-31,9.8   c-26.5,0-38.7-17.8-38.7-37c0-21,14.8-37,37.3-37c20.3,0,35.8,13,35.8,35.5C182.1,67.8,181.9,70.6,181.5,73.4z M129.3,59h33.3   c-1.8-8-7.7-13.2-16.3-13.2C138.1,45.8,131.7,50.7,129.3,59z"></path>
		<path class="st0" d="M226.4,102l-12.3-22.1l-13,22.1H178l22.8-35.9l-20.3-34.8h23.1l10.8,20.7l11.9-20.7h22.7l-21.6,35.2l22.2,35.5   H226.4z"></path>
		<path class="st0" d="M249.5,92.7c0-6.3,5-11.2,11.5-11.2c6.1,0,11.1,4.9,11.1,11.2c0,6.6-5,11.4-11.1,11.4   C254.5,104,249.5,99.3,249.5,92.7z"></path>
	</g>
</svg>