<?xml version="1.0" encoding="utf-8"?>
<!-- Generator: Adobe Illustrator 22.1.0, SVG Export Plug-In . SVG Version: 6.00 Build 0)  -->
<svg version="1.1" id="Layer_1" xmlns="http://www.w3.org/2000/svg" xmlns:xlink="http://www.w3.org/1999/xlink" x="0px" y="0px"
	 viewBox="0 0 67 89" style="enable-background:new 0 0 67 89;" xml:space="preserve">
<style type="text/css">
	.st0{fill:none;stroke:#3F3F3F;stroke-linecap:round;stroke-linejoin:round;}
	.st1{fill:#C2C2C2;}
	.st2{fill:none;stroke:#151515;stroke-width:1.5;}
	.st3{fill:none;stroke:#151515;}
</style>
<g id="Version-2">
	<g id="full-preview-6" transform="translate(-975.000000, -1045.000000)">
		<g id="augmented-reality-world" transform="translate(976.000000, 1046.000000)">
			<path id="Stroke-1" class="st0" d="M8.4,26C10.5,12.4,22.3,2,36.5,2C52.2,2,65,14.8,65,30.5l0,0C65,46.2,52.2,59,36.5,59
				c-2.3,0-4.5-0.3-6.7-0.8"/>
			<path id="Stroke-3" class="st0" d="M57,11.2c0,0-1.2,6.8-6.1,9.2c-4.9-1.2-7.7-1.5-8.4,0.7s2.7,5.1,2.7,5.1c2.6,0.6,3.3,3.9,3,4
				c0.6,4.1-4.6,6.2-4.6,7.5s3,1.8,1.2,3.7c-1.8,1.8-3.7,2.5-3.7,2.5c0,6.2-6.1,6.2-7.3,6.2s-3.7-4.9-3.7-6.2s0.7-3,0.7-4.2
				c0-0.7-0.6-1.6-1.2-2.3 M18.2,25.9c0.4-2.6,1.7-7.1,5.9-8c6.1-1.2,6.1,1.2,6.1,1.2c2.4,2.5,7.3,0,9.8,0c0,0,0.7-6.2-1.2-7.4
				s-5.3-3.1-3.9-5.3c2.9-4.6,9.6-3.3,9.6-3.3"/>
			<path id="Path-303" class="st0" d="M0,30.4C0,27.9,1.6,26,3.9,26s19.4,0,21.7,0s4,2,4,4.4s0,50.5,0,53.1s-1.9,3.8-3.6,3.8
				s-20.2,0-22.4,0S0,85.4,0,83.2S0,33,0,30.4z"/>
			<path id="Path-304" class="st0" d="M2.2,35c0-0.9,0.5-2.2,2-2.2s20.2,0,21.7,0s1.9,1.1,1.9,2.1s0,42.1,0,43.5
				c0,1.4-1,2.2-1.8,2.2s-20.8,0-21.8,0S2.2,80,2.2,78.4S2.2,35.8,2.2,35z"/>
			<polyline id="Path-306" class="st0" points="4.5,41.2 4.5,35.8 9.8,35.8 			"/>
			<polyline id="Path-306-Copy-2" class="st0" points="4.5,71.8 4.5,77.2 9.8,77.2 			"/>
			<polyline id="Path-306-Copy" class="st0" points="24.8,41.2 24.8,35.8 19.5,35.8 			"/>
			<polyline id="Path-306-Copy-3" class="st0" points="24.8,71.8 24.8,77.2 19.5,77.2 			"/>
			<path id="Path-307" class="st0" d="M15,50v13.5"/>
			<path id="Path-307_1_" class="st0" d="M8.3,56.7h13.5"/>
			<g id="Oval-Copy-300" transform="translate(15.000000, 57.000000) rotate(-90.000000) translate(-15.000000, -57.000000) ">
				<g>
					<circle id="path-1" class="st1" cx="15" cy="57" r="3"/>
				</g>
				<circle class="st2" cx="15" cy="57" r="2.3"/>
				<g>
					<circle id="path-1_1_" class="st3" cx="15" cy="57" r="3"/>
				</g>
			</g>
			<g id="Oval-Copy-304" transform="translate(8.500000, 26.000000) rotate(-90.000000) translate(-8.500000, -26.000000) ">
				<g>
					<circle id="path-2" class="st1" cx="8.5" cy="26" r="3"/>
				</g>
				<circle class="st2" cx="8.5" cy="26" r="2.3"/>
				<g>
					<circle id="path-2_1_" class="st3" cx="8.5" cy="26" r="3"/>
				</g>
			</g>
			<g id="Oval-Copy-302" transform="translate(57.000000, 11.000000) rotate(-90.000000) translate(-57.000000, -11.000000) ">
				<g>
					<circle id="path-3" class="st1" cx="57" cy="11" r="3"/>
				</g>
				<circle class="st2" cx="57" cy="11" r="2.3"/>
				<g>
					<circle id="path-3_1_" class="st3" cx="57" cy="11" r="3"/>
				</g>
			</g>
			<g id="Oval-Copy-303" transform="translate(43.000000, 3.000000) rotate(-90.000000) translate(-43.000000, -3.000000) ">
				<g>
					<circle id="path-4" class="st1" cx="43" cy="3" r="3"/>
				</g>
				<circle class="st2" cx="43" cy="3" r="2.3"/>
				<g>
					<circle id="path-4_1_" class="st3" cx="43" cy="3" r="3"/>
				</g>
			</g>
		</g>
	</g>
</g>
</svg>
