<?xml version="1.0" encoding="utf-8"?>
<!-- Generator: Adobe Illustrator 22.1.0, SVG Export Plug-In . SVG Version: 6.00 Build 0)  -->
<svg version="1.1" id="Layer_1" xmlns="http://www.w3.org/2000/svg" xmlns:xlink="http://www.w3.org/1999/xlink" x="0px" y="0px"
	 viewBox="0 0 78 69" style="enable-background:new 0 0 78 69;" xml:space="preserve">
<style type="text/css">
	.st0{fill:none;stroke:#3F3F3F;stroke-linecap:round;stroke-linejoin:round;}
	.st1{fill:#C2C2C2;}
	.st2{fill:none;stroke:#151515;stroke-width:1.5;}
	.st3{fill:none;stroke:#151515;}
</style>
<g id="Version-2">
	<g id="full-preview-8" transform="translate(-966.000000, -53.000000)">
		<g id="check" transform="translate(967.000000, 54.000000)">
			<polyline id="Path-511" class="st0" points="45.9,30.1 -0.5,30.1 -0.5,67.5 64.7,67.5 64.7,30.2 57.8,30.2 			"/>
			<polyline id="Path-513" class="st0" points="69.9,14.8 73.7,17.8 69.2,23.5 			"/>
			<path id="Path-514" class="st0" d="M43.2,33.6l6.9,5.5"/>
			<path id="Path-515" class="st0" d="M9,38.7h24.3"/>
			<path id="Path-515_1_" class="st0" d="M9,48.7h45.8"/>
			<path id="Path-515_2_" class="st0" d="M9,58.7h45.7"/>
			<g id="Oval-Copy-187" transform="translate(10.000000, 39.000000) rotate(-90.000000) translate(-10.000000, -39.000000) ">
				<g>
					<circle id="path-1_3_" class="st1" cx="10.5" cy="38.5" r="3"/>
				</g>
				<circle class="st2" cx="10.5" cy="38.5" r="2.3"/>
				<g>
					<circle id="path-1_2_" class="st3" cx="10.5" cy="38.5" r="3"/>
				</g>
			</g>
			<g id="Oval-Copy-187_1_" transform="translate(10.000000, 59.500000) rotate(-90.000000) translate(-10.000000, -59.500000) ">
				<g>
					<circle id="path-2_3_" class="st1" cx="10.5" cy="59" r="3"/>
				</g>
				<circle class="st2" cx="10.5" cy="59" r="2.3"/>
				<g>
					<circle id="path-2_2_" class="st3" cx="10.5" cy="59" r="3"/>
				</g>
			</g>
			<path id="Path-512" class="st0" d="M74,9.5C65.7,19.8,57.4,30.4,49,41.2l-7.3,1.9v-7.6C57.2,15.8,65.5,5.3,66.6,3.8
				c1.7-2.2,4.6-3.1,6.9-1.4S75.9,7,74,9.5z"/>
			<path id="Path-514_1_" class="st0" d="M63.9,7.2l7.1,5.9"/>
			<g id="Oval-Copy-187_2_" transform="translate(74.000000, 3.000000) rotate(-90.000000) translate(-74.000000, -3.000000) ">
				<g>
					<circle id="path-3_3_" class="st1" cx="74.5" cy="2.5" r="3"/>
				</g>
				<circle class="st2" cx="74.5" cy="2.5" r="2.3"/>
				<g>
					<circle id="path-3_2_" class="st3" cx="74.5" cy="2.5" r="3"/>
				</g>
			</g>
			<g id="Oval-Copy-187_3_" transform="translate(42.000000, 44.000000) rotate(-90.000000) translate(-42.000000, -44.000000) ">
				<g>
					<circle id="path-4_3_" class="st1" cx="42.5" cy="43.5" r="3"/>
				</g>
				<circle class="st2" cx="42.5" cy="43.5" r="2.3"/>
				<g>
					<circle id="path-4_2_" class="st3" cx="42.5" cy="43.5" r="3"/>
				</g>
			</g>
		</g>
	</g>
</g>
</svg>
