<?xml version="1.0" encoding="utf-8"?>
<!-- Generator: Adobe Illustrator 22.1.0, SVG Export Plug-In . SVG Version: 6.00 Build 0)  -->
<svg version="1.1" id="Layer_1" xmlns="http://www.w3.org/2000/svg" xmlns:xlink="http://www.w3.org/1999/xlink" x="0px" y="0px"
	 viewBox="0 0 85.6 73.5" style="enable-background:new 0 0 85.6 73.5;" xml:space="preserve">
<style type="text/css">
	.st0{fill:none;stroke:#3F3F3F;stroke-linecap:round;stroke-linejoin:round;}
	.st1{fill:#C2C2C2;}
	.st2{fill:none;stroke:#151515;stroke-width:1.5;}
	.st3{fill:none;stroke:#151515;}
</style>
<g>
	<path class="st0" d="M32.5,0.5c-17.7,0-32,14.3-32,32c0,9.8,4.4,18.6,11.4,24.5L10.3,73l15.3-9.3c2.2,0.5,4.5,0.8,6.9,0.8
		c17.7,0,32-14.3,32-32S50.2,0.5,32.5,0.5z"/>
	<path class="st0" d="M63.2,23.6c10.3,1.5,18.2,10.3,18.2,21c0,6.5-2.9,12.3-7.6,16.2l1.1,10.7l-10.1-6.2c-1.5,0.3-3,0.5-4.6,0.5
		c-5.4,0-10.4-2-14.1-5.4"/>
	<g id="Oval-Copy-128_1_" transform="translate(3.500000, 41.000000) rotate(-90.000000) translate(-3.500000, -41.000000) ">
		<g>
			<circle id="path-4_3_" class="st1" cx="28.6" cy="42.4" r="3"/>
		</g>
		<circle class="st2" cx="28.6" cy="42.4" r="2.3"/>
		<g>
			<circle id="path-4_2_" class="st3" cx="28.6" cy="42.4" r="3"/>
		</g>
	</g>
	<g id="Oval-Copy-128_6_" transform="translate(3.500000, 41.000000) rotate(-90.000000) translate(-3.500000, -41.000000) ">
		<g>
			<circle id="path-4_25_" class="st1" cx="-2.8" cy="119.5" r="3"/>
		</g>
		<circle class="st2" cx="-2.8" cy="119.5" r="2.3"/>
		<g>
			<circle id="path-4_24_" class="st3" cx="-2.8" cy="119.5" r="3"/>
		</g>
	</g>
	<g id="Oval-Copy-128_2_" transform="translate(3.500000, 41.000000) rotate(-90.000000) translate(-3.500000, -41.000000) ">
		<g>
			<circle id="path-4_5_" class="st1" cx="-15.7" cy="84.9" r="3"/>
		</g>
		<circle class="st2" cx="-15.7" cy="84.9" r="2.3"/>
		<g>
			<circle id="path-4_4_" class="st3" cx="-15.7" cy="84.9" r="3"/>
		</g>
	</g>
	<g id="Oval-Copy-128_3_" transform="translate(3.500000, 41.000000) rotate(-90.000000) translate(-3.500000, -41.000000) ">
		<g>
			<circle id="path-4_17_" class="st1" cx="10.2" cy="57.4" r="3"/>
		</g>
		<circle class="st2" cx="10.2" cy="57.4" r="2.3"/>
		<g>
			<circle id="path-4_16_" class="st3" cx="10.2" cy="57.4" r="3"/>
		</g>
	</g>
	<g id="Oval-Copy-128_4_" transform="translate(3.500000, 41.000000) rotate(-90.000000) translate(-3.500000, -41.000000) ">
		<g>
			<circle id="path-4_21_" class="st1" cx="10.2" cy="69.4" r="3"/>
		</g>
		<circle class="st2" cx="10.2" cy="69.4" r="2.3"/>
		<g>
			<circle id="path-4_20_" class="st3" cx="10.2" cy="69.4" r="3"/>
		</g>
	</g>
	<g id="Oval-Copy-128_5_" transform="translate(3.500000, 41.000000) rotate(-90.000000) translate(-3.500000, -41.000000) ">
		<g>
			<circle id="path-4_23_" class="st1" cx="10.2" cy="81.4" r="3"/>
		</g>
		<circle class="st2" cx="10.2" cy="81.4" r="2.3"/>
		<g>
			<circle id="path-4_22_" class="st3" cx="10.2" cy="81.4" r="3"/>
		</g>
	</g>
</g>
</svg>
