<?xml version="1.0" encoding="UTF-8"?>
<svg width="79px" height="70px" viewBox="0 0 79 70" version="1.1" xmlns="http://www.w3.org/2000/svg" xmlns:xlink="http://www.w3.org/1999/xlink">
    <!-- Generator: Sketch 47.1 (45422) - http://www.bohemiancoding.com/sketch -->
    <title>check</title>
    <desc>Created with Sketch.</desc>
    <defs>
        <circle id="path-1" cx="10" cy="39" r="3"></circle>
        <circle id="path-2" cx="10" cy="59.5" r="3"></circle>
        <circle id="path-3" cx="74" cy="3" r="3"></circle>
        <circle id="path-4" cx="42" cy="44" r="3"></circle>
    </defs>
    <g id="Version-2" stroke="none" stroke-width="1" fill="none" fill-rule="evenodd">
        <g id="full-preview-8" transform="translate(-966.000000, -53.000000)">
            <g id="check" transform="translate(967.000000, 54.000000)">
                <polyline id="Path-511" stroke="#3F3F3F" stroke-linecap="round" stroke-linejoin="round" points="46.3933181 30.6325535 -0.00041185884 30.6325535 -0.00041185884 67.9909515 65.2271539 67.9909515 65.2271539 30.7191174 58.32054 30.7191174"></polyline>
                <polyline id="Path-513" stroke="#3F3F3F" stroke-linecap="round" stroke-linejoin="round" points="70.3948985 15.3070835 74.1607711 18.2590212 69.6854433 23.9618224"></polyline>
                <path d="M43.731579,34.1395469 L50.5872914,39.5930522" id="Path-514" stroke="#3F3F3F" stroke-linecap="round" stroke-linejoin="round"></path>
                <path d="M9.52627168,39.1987811 L33.7933174,39.1987811" id="Path-515" stroke="#3F3F3F" stroke-linecap="round" stroke-linejoin="round"></path>
                <path d="M9.52627168,49.1987811 L55.2874544,49.1987811" id="Path-515" stroke="#3F3F3F" stroke-linecap="round" stroke-linejoin="round"></path>
                <path d="M9.52627168,59.1987811 L55.2578882,59.1987811" id="Path-515" stroke="#3F3F3F" stroke-linecap="round" stroke-linejoin="round"></path>
                <g id="Oval-Copy-187" transform="translate(10.000000, 39.000000) rotate(-90.000000) translate(-10.000000, -39.000000) ">
                    <use fill="#C2C2C2" fill-rule="evenodd" xlink:href="#path-1"></use>
                    <circle stroke="#151515" stroke-width="1.5" cx="10" cy="39" r="2.25"></circle>
                    <use stroke="#151515" stroke-width="1" xlink:href="#path-1"></use>
                </g>
                <g id="Oval-Copy-187" transform="translate(10.000000, 59.500000) rotate(-90.000000) translate(-10.000000, -59.500000) ">
                    <use fill="#C2C2C2" fill-rule="evenodd" xlink:href="#path-2"></use>
                    <circle stroke="#151515" stroke-width="1.5" cx="10" cy="59.5" r="2.25"></circle>
                    <use stroke="#151515" stroke-width="1" xlink:href="#path-2"></use>
                </g>
                <path d="M74.451688,9.97491464 C66.24355,20.3018073 57.9372184,30.8604594 49.5326934,41.650871 L42.2619735,43.5751502 L42.2619735,35.9599132 C57.7038059,16.3299387 65.9771157,5.78794755 67.0819029,4.33393963 C68.7390837,2.15292775 71.7161609,1.22168041 73.9968084,2.92578785 C76.277456,4.6298953 76.4035191,7.51926015 74.451688,9.97491464 Z" id="Path-512" stroke="#3F3F3F" stroke-linecap="round" stroke-linejoin="round"></path>
                <path d="M64.4426293,7.73996121 L71.5872914,13.5930522" id="Path-514" stroke="#3F3F3F" stroke-linecap="round" stroke-linejoin="round"></path>
                <g id="Oval-Copy-187" transform="translate(74.000000, 3.000000) rotate(-90.000000) translate(-74.000000, -3.000000) ">
                    <use fill="#C2C2C2" fill-rule="evenodd" xlink:href="#path-3"></use>
                    <circle stroke="#151515" stroke-width="1.5" cx="74" cy="3" r="2.25"></circle>
                    <use stroke="#151515" stroke-width="1" xlink:href="#path-3"></use>
                </g>
                <g id="Oval-Copy-187" transform="translate(42.000000, 44.000000) rotate(-90.000000) translate(-42.000000, -44.000000) ">
                    <use fill="#C2C2C2" fill-rule="evenodd" xlink:href="#path-4"></use>
                    <circle stroke="#151515" stroke-width="1.5" cx="42" cy="44" r="2.25"></circle>
                    <use stroke="#151515" stroke-width="1" xlink:href="#path-4"></use>
                </g>
            </g>
        </g>
    </g>
</svg>