<svg xmlns="http://www.w3.org/2000/svg" viewBox="0 0 105.59 74"><defs><style>.cls-1,.cls-3,.cls-4{fill:none;}.cls-1{stroke:#3f3f3f;stroke-linecap:round;stroke-linejoin:round;}.cls-2{fill:#c2c2c2;}.cls-3,.cls-4{stroke:#151515;}.cls-3{stroke-width:1.5px;}</style></defs><title>conveyance-facility</title><g id="Layer_2" data-name="Layer 2"><g id="Layer_1-2" data-name="Layer 1"><path class="cls-1" d="M83.06,3.5c7.07-.13,19,5.4,19,31.32V55.51A4.19,4.19,0,0,1,98,59.65H95.6a16.48,16.48,0,0,0-31.7,0H41.69a16.48,16.48,0,0,0-31.7,0H7.64A4.19,4.19,0,0,1,3.5,55.51V7.94A4.36,4.36,0,0,1,7.64,3.58c37,0,56.62.27,75.42-.08Z"/><path class="cls-1" d="M79.75,56.49A8.51,8.51,0,1,1,71.25,65a8.51,8.51,0,0,1,8.5-8.51Z"/><path class="cls-1" d="M25.84,56.49A8.51,8.51,0,1,1,17.34,65a8.51,8.51,0,0,1,8.5-8.51Z"/><path class="cls-1" d="M3.5,33.84c10.73,0,90.71,0,98.29,0"/><path class="cls-1" d="M36,6.61c0,2.72,0,23,0,25"/><path class="cls-1" d="M68.5,6.61c0,2.72,0,23,0,25"/><circle id="path-4" class="cls-2" cx="35.93" cy="3.5" r="3"/><circle class="cls-3" cx="35.93" cy="3.5" r="2.25"/><circle id="path-4-2" data-name="path-4" class="cls-4" cx="35.93" cy="3.5" r="3"/><circle id="path-4-3" data-name="path-4" class="cls-2" cx="3.5" cy="26.56" r="3"/><circle class="cls-3" cx="3.5" cy="26.56" r="2.25"/><circle id="path-4-4" data-name="path-4" class="cls-4" cx="3.5" cy="26.56" r="3"/><circle id="path-4-5" data-name="path-4" class="cls-2" cx="52.8" cy="59.65" r="3"/><circle class="cls-3" cx="52.8" cy="59.65" r="2.25"/><circle id="path-4-6" data-name="path-4" class="cls-4" cx="52.8" cy="59.65" r="3"/><circle id="path-4-7" data-name="path-4" class="cls-2" cx="102.09" cy="33.84" r="3"/><circle class="cls-3" cx="102.09" cy="33.84" r="2.25"/><circle id="path-4-8" data-name="path-4" class="cls-4" cx="102.09" cy="33.84" r="3"/><circle id="path-4-9" data-name="path-4" class="cls-2" cx="68.47" cy="33.8" r="3"/><circle class="cls-3" cx="68.47" cy="33.8" r="2.25"/><circle id="path-4-10" data-name="path-4" class="cls-4" cx="68.47" cy="33.8" r="3"/></g></g></svg>