<?xml version="1.0" encoding="UTF-8"?>
<svg width="78px" height="68px" viewBox="0 0 78 68" version="1.1" xmlns="http://www.w3.org/2000/svg" xmlns:xlink="http://www.w3.org/1999/xlink">
    <!-- Generator: Sketch 47.1 (45422) - http://www.bohemiancoding.com/sketch -->
    <title>first-aid-kit</title>
    <desc>Created with Sketch.</desc>
    <defs>
        <circle id="path-1" cx="38" cy="11" r="3"></circle>
        <circle id="path-2" cx="38" cy="62" r="3"></circle>
        <circle id="path-3" cx="8" cy="25" r="3"></circle>
        <circle id="path-4" cx="68.5" cy="25" r="3"></circle>
    </defs>
    <g id="Version-2" stroke="none" stroke-width="1" fill="none" fill-rule="evenodd">
        <g id="full-preview-7" transform="translate(-778.000000, -719.000000)">
            <g id="first-aid-kit" transform="translate(779.000000, 719.000000)">
                <g id="Group-8" stroke="#3F3F3F" stroke-linecap="round" stroke-linejoin="round">
                    <path d="M32.9736362,32.4423862 L25,32.4423862 L25,41.5551133 L32.9736362,41.5551133 L32.9736362,49.5287495 L42.0863633,49.5287495 L42.0863633,41.5551133 L50.0599995,41.5551133 L50.0599995,32.4423862 L42.0863633,32.4423862 L42.0863633,24.46875 L32.9736362,24.46875 L32.9736362,32.4423862 Z" id="Combined-Shape"></path>
                    <path d="M36.5698635,66.98889 C60.3084237,66.98889 72.3157371,66.98889 72.5918036,66.98889 C73.0059033,66.98889 73.6033564,66.7331189 73.9778353,66.4197027 C74.3523142,66.1062866 75.2284745,65.3289487 75.5632085,64.9505886 C75.8979425,64.5722285 76.2299818,64.3320291 76.2299818,63.4129414 C76.2299818,62.8002163 76.2299818,54.5500707 76.2299818,38.6625048" id="Path-377"></path>
                    <path d="M36.5698635,38.95764 C60.3084237,38.95764 72.3157371,38.95764 72.5918036,38.95764 C73.0059033,38.95764 73.6033564,38.7018689 73.9778353,38.3884527 C74.3523142,38.0750366 75.2284745,37.2976987 75.5632085,36.9193386 C75.8979425,36.5409785 76.2299818,36.3007791 76.2299818,35.3816914 C76.2299818,34.7689663 76.2299818,26.5188207 76.2299818,10.6312548" id="Path-377" transform="translate(56.399923, 24.794447) scale(1, -1) translate(-56.399923, -24.794447) "></path>
                    <path d="M0.00736354835,66.98889 C23.7459237,66.98889 35.7532371,66.98889 36.0293036,66.98889 C36.4434033,66.98889 37.0408564,66.7331189 37.4153353,66.4197027 C37.7898142,66.1062866 38.6659745,65.3289487 39.0007085,64.9505886 C39.3354425,64.5722285 39.6674818,64.3320291 39.6674818,63.4129414 C39.6674818,62.8002163 39.6674818,54.5500707 39.6674818,38.6625048" id="Path-377" transform="translate(19.837423, 52.825697) scale(-1, 1) translate(-19.837423, -52.825697) "></path>
                    <path d="M0.00736354835,38.95764 C23.7459237,38.95764 35.7532371,38.95764 36.0293036,38.95764 C36.4434033,38.95764 37.0408564,38.7018689 37.4153353,38.3884527 C37.7898142,38.0750366 38.6659745,37.2976987 39.0007085,36.9193386 C39.3354425,36.5409785 39.6674818,36.3007791 39.6674818,35.3816914 C39.6674818,34.7689663 39.6674818,26.5188207 39.6674818,10.6312548" id="Path-377" transform="translate(19.837423, 24.794447) scale(-1, -1) translate(-19.837423, -24.794447) "></path>
                    <polyline id="Path-378" points="56.4571964 10.8530177 56.4571964 15.8060963 68.5853358 15.8060963 68.5853358 10.7576866"></polyline>
                    <polyline id="Path-378" points="7.70719644 10.8530177 7.70719644 15.8060963 19.8353358 15.8060963 19.8353358 10.7576866"></polyline>
                    <path d="M8,25.1099854 L8,62.15625" id="Line-5"></path>
                    <path d="M0.21875,62.15625 L76.4125593,62.15625" id="Line-5"></path>
                    <path d="M68.46875,25.1099854 L68.46875,62.15625" id="Line-5"></path>
                    <path d="M23.6408535,10.604724 C24.8119266,8.44415583 27.5555902,1.98849055 28.0587075,1.3300671 C28.5618249,0.671643646 29.0440178,0.671643646 30.2929764,0.671643646 C31.1256154,0.671643646 33.7482991,0.671643646 38.1610273,0.671643646" id="Path-379"></path>
                    <path d="M37.0471035,10.604724 C38.2181766,8.44415583 40.9618402,1.98849055 41.4649575,1.3300671 C41.9680749,0.671643646 42.4502678,0.671643646 43.6992264,0.671643646 C44.5318654,0.671643646 47.1545491,0.671643646 51.5672773,0.671643646" id="Path-379" transform="translate(44.307190, 5.638184) scale(-1, 1) translate(-44.307190, -5.638184) "></path>
                    <path d="M33.1294051,0.941569363 L33.1294051,6.0843197" id="Path-381"></path>
                    <path d="M38.0044051,0.941569363 L38.0044051,6.0843197" id="Path-381"></path>
                    <path d="M42.8794051,0.941569363 L42.8794051,6.0843197" id="Path-381"></path>
                    <path d="M49.1694095,6.01342941 L25.9515379,6.01342941" id="Path-380"></path>
                </g>
                <g id="Oval-Copy-564" transform="translate(38.000000, 11.000000) rotate(-90.000000) translate(-38.000000, -11.000000) ">
                    <use fill="#C2C2C2" fill-rule="evenodd" xlink:href="#path-1"></use>
                    <circle stroke="#151515" stroke-width="1.5" cx="38" cy="11" r="2.25"></circle>
                    <use stroke="#151515" stroke-width="1" xlink:href="#path-1"></use>
                </g>
                <g id="Oval-Copy-570" transform="translate(38.000000, 62.000000) rotate(-90.000000) translate(-38.000000, -62.000000) ">
                    <use fill="#C2C2C2" fill-rule="evenodd" xlink:href="#path-2"></use>
                    <circle stroke="#151515" stroke-width="1.5" cx="38" cy="62" r="2.25"></circle>
                    <use stroke="#151515" stroke-width="1" xlink:href="#path-2"></use>
                </g>
                <g id="Oval-Copy-571" transform="translate(8.000000, 25.000000) rotate(-90.000000) translate(-8.000000, -25.000000) ">
                    <use fill="#C2C2C2" fill-rule="evenodd" xlink:href="#path-3"></use>
                    <circle stroke="#151515" stroke-width="1.5" cx="8" cy="25" r="2.25"></circle>
                    <use stroke="#151515" stroke-width="1" xlink:href="#path-3"></use>
                </g>
                <g id="Oval-Copy-572" transform="translate(68.500000, 25.000000) rotate(-90.000000) translate(-68.500000, -25.000000) ">
                    <use fill="#C2C2C2" fill-rule="evenodd" xlink:href="#path-4"></use>
                    <circle stroke="#151515" stroke-width="1.5" cx="68.5" cy="25" r="2.25"></circle>
                    <use stroke="#151515" stroke-width="1" xlink:href="#path-4"></use>
                </g>
            </g>
        </g>
    </g>
</svg>