<?xml version="1.0" encoding="UTF-8"?>
<svg width="96px" height="74px" viewBox="0 0 96 74" version="1.1" xmlns="http://www.w3.org/2000/svg" xmlns:xlink="http://www.w3.org/1999/xlink">
    <!-- Generator: Sketch 47.1 (45422) - http://www.bohemiancoding.com/sketch -->
    <title>hand-shake-2</title>
    <desc>Created with Sketch.</desc>
    <defs>
        <circle id="path-1" cx="47" cy="22" r="3"></circle>
        <circle id="path-2" cx="81" cy="32" r="3"></circle>
        <circle id="path-3" cx="67.5" cy="48.5" r="3"></circle>
        <circle id="path-4" cx="15" cy="31" r="3"></circle>
    </defs>
    <g id="Version-2" stroke="none" stroke-width="1" fill="none" fill-rule="evenodd">
        <g id="full-preview-8" transform="translate(-956.000000, -728.000000)">
            <g id="hand-shake-2" transform="translate(956.000000, 729.000000)">
                <path d="M62.3794934,8.9840472 C62.252907,15.4649254 62.1896139,19.7388906 62.1896139,21.8059429 C62.1896139,24.9065213 64.1557326,25.5548484 65.9759004,25.5548484 C67.7960682,25.5548484 87.5382237,25.6122412 89.5413966,25.6122412 C91.5445695,25.6122412 93.7434373,24.9411189 93.7434373,21.6028772 C93.7434373,19.3773827 93.8067305,15.2173713 93.9333168,9.12284291" id="Path-615" stroke="#3F3F3F" stroke-linecap="round" stroke-linejoin="round" transform="translate(78.061465, 17.298144) rotate(-315.000000) translate(-78.061465, -17.298144) "></path>
                <path d="M1.42007628,8.78795119 C1.29348989,15.2688294 1.2301967,19.5427946 1.2301967,21.6098469 C1.2301967,24.7104253 3.19631543,25.3587524 5.01648323,25.3587524 C6.83665103,25.3587524 26.5788065,25.4161452 28.5819795,25.4161452 C30.5851524,25.4161452 32.7840201,24.7450229 32.7840201,21.4067812 C32.7840201,19.1812867 32.8473133,15.0212753 32.9738997,8.9267469" id="Path-615" stroke="#3F3F3F" stroke-linecap="round" stroke-linejoin="round" transform="translate(17.102048, 17.102048) scale(-1, 1) rotate(-315.000000) translate(-17.102048, -17.102048) "></path>
                <path d="M67.6551346,48.1232174 C67.6551346,52.1325247 67.6551346,54.8315231 67.6551346,56.2202125 C67.6551346,58.3032467 66.5534058,59.749201 65.534885,60.6972886 C64.5163642,61.6453761 58.0378812,67.3194002 54.9408874,70.0604297 C51.8438936,72.8014591 48.0670803,72.6284832 44.2681702,69.2570066 C40.4692602,65.8855301 23.2776645,49.9127067 21.9497895,48.6314421 C20.6219146,47.3501774 20.6219146,46.3972562 20.6219146,44.395086 C20.6219146,42.3929157 20.6219146,39.1507466 20.6219146,38.0354628 C20.6219146,36.9201789 20.0712228,35.5380979 18.9656961,34.508874 C18.2286784,33.8227247 16.9835721,32.5776185 15.2303774,30.7735552" id="Path-617" stroke="#3F3F3F" stroke-linecap="round" stroke-linejoin="round"></path>
                <path d="M63.5827654,14.6846882 C61.4087945,16.8635788 59.9669195,18.1449246 59.2977066,18.7471383 C58.6284937,19.349352 57.9253917,19.3661018 56.6052739,19.349352 C55.285156,19.3326022 52.995108,19.3661018 52.0169977,19.3661018 C51.0388874,19.3661018 49.5088128,19.3867469 48.6393814,20.3407063 C47.76995,21.2946658 35.6029743,32.3904334 34.12237,33.9084326 C32.6417658,35.4264317 32.2340653,37.7047483 33.3144844,38.9470057 C35.4791672,41.435941 41.2633895,46.3746753 46.8000198,41.0672185 C48.3555794,39.576047 49.2952708,38.7036363 51.0780444,37.0987557 C52.8608179,35.4938752 54.5162072,35.1079868 56.7958838,37.1672799 C59.0755605,39.2265729 66.3418122,46.7858968 67.9031007,48.2744968 C69.4643893,49.7630967 71.1996341,48.9104491 72.602377,47.4924258 C74.0051198,46.0744026 75.1389272,45.1364902 75.9686542,44.3636064 C76.7983812,43.5907226 76.5022466,42.4062998 76.5022466,41.0672185 C76.5022466,39.7281372 76.5022466,38.8617497 76.5022466,37.7823343 C76.5022466,36.702919 76.4994961,35.6717908 78.2980019,33.9084326 C79.0749574,33.1466609 79.4382799,32.6687895 80.6763553,31.4036349" id="Path-616" stroke="#3F3F3F" stroke-linecap="round" stroke-linejoin="round"></path>
                <path d="M47.2353458,21.7355871 C43.5124641,20.6658118 39.1976085,21.2192312 37.0642933,19.4506478 C35.6420831,18.2715922 33.8450473,16.6309069 31.673186,14.5285919" id="Path-618" stroke="#3F3F3F" stroke-linecap="round" stroke-linejoin="round"></path>
                <g id="Oval-Copy-520" transform="translate(47.000000, 22.000000) rotate(-90.000000) translate(-47.000000, -22.000000) ">
                    <use fill="#C2C2C2" fill-rule="evenodd" xlink:href="#path-1"></use>
                    <circle stroke="#151515" stroke-width="1.5" cx="47" cy="22" r="2.25"></circle>
                    <use stroke="#151515" stroke-width="1" xlink:href="#path-1"></use>
                </g>
                <g id="Oval-Copy-520" transform="translate(81.000000, 32.000000) rotate(-90.000000) translate(-81.000000, -32.000000) ">
                    <use fill="#C2C2C2" fill-rule="evenodd" xlink:href="#path-2"></use>
                    <circle stroke="#151515" stroke-width="1.5" cx="81" cy="32" r="2.25"></circle>
                    <use stroke="#151515" stroke-width="1" xlink:href="#path-2"></use>
                </g>
                <g id="Oval-Copy-520" transform="translate(67.500000, 48.500000) rotate(-90.000000) translate(-67.500000, -48.500000) ">
                    <use fill="#C2C2C2" fill-rule="evenodd" xlink:href="#path-3"></use>
                    <circle stroke="#151515" stroke-width="1.5" cx="67.5" cy="48.5" r="2.25"></circle>
                    <use stroke="#151515" stroke-width="1" xlink:href="#path-3"></use>
                </g>
                <g id="Oval-Copy-520" transform="translate(15.000000, 31.000000) rotate(-90.000000) translate(-15.000000, -31.000000) ">
                    <use fill="#C2C2C2" fill-rule="evenodd" xlink:href="#path-4"></use>
                    <circle stroke="#151515" stroke-width="1.5" cx="15" cy="31" r="2.25"></circle>
                    <use stroke="#151515" stroke-width="1" xlink:href="#path-4"></use>
                </g>
            </g>
        </g>
    </g>
</svg>