<svg xmlns="http://www.w3.org/2000/svg" viewBox="0 0 77.49 72.58"><defs><style>.cls-1,.cls-3,.cls-4{fill:none;}.cls-1{stroke:#3f3f3f;stroke-linecap:round;stroke-linejoin:round;}.cls-2{fill:#c2c2c2;}.cls-3,.cls-4{stroke:#151515;}.cls-3{stroke-width:1.5px;}</style></defs><title>loan-facility</title><g id="Layer_2" data-name="Layer 2"><g id="Layer_1-2" data-name="Layer 1"><path class="cls-1" d="M42.19,49.9l10.09-5.37c2.37-1.26,7-3.18,7,1.56L61,44.92c4.78-3.27,8.42-1,6.63,3.57,8.51-6.18,11.51,1.65,7.72,3.57L56.56,63.94l-8,5C43,72.54,35.5,72.59,33.41,71.34c-11.9-3.07-15.34-6-25.71-4.65"/><path class="cls-1" d="M2.69,45.51l12.3-5c3.14-1.28,6.66-.95,8,0l6.67,4.94c9.25,6.85,10,5.14,20.89,5.79,2.42.14,4,4,0,5.57-10.17,4.65-16.45,2.56-25.72-2.18"/><line class="cls-1" x1="39.84" y1="26.1" x2="39.84" y2="29.84"/><line class="cls-1" x1="39.84" y1="6.03" x2="39.84" y2="9.77"/><path class="cls-1" d="M39.84.5A17.44,17.44,0,1,1,22.4,17.94,17.44,17.44,0,0,1,39.84.5Z"/><path class="cls-1" d="M45.26,11.73a23.43,23.43,0,0,0-4.84-1.29c-8.4-.95-9.48,7.53-.53,7.5,8.7,0,7.88,8.45-.55,7.5a24.67,24.67,0,0,1-4.83-1.29"/><circle id="path-1" class="cls-2" cx="52.98" cy="6.03" r="3"/><circle class="cls-3" cx="52.98" cy="6.03" r="2.25"/><circle id="path-1-2" data-name="path-1" class="cls-4" cx="52.98" cy="6.03" r="3"/><circle id="path-1-3" data-name="path-1" class="cls-2" cx="25.4" cy="27.36" r="3"/><circle class="cls-3" cx="25.4" cy="27.36" r="2.25"/><circle id="path-1-4" data-name="path-1" class="cls-4" cx="25.4" cy="27.36" r="3"/><circle id="path-1-5" data-name="path-1" class="cls-2" cx="19.15" cy="67.2" r="3"/><circle class="cls-3" cx="19.15" cy="67.2" r="2.25"/><circle id="path-1-6" data-name="path-1" class="cls-4" cx="19.15" cy="67.2" r="3"/><circle id="path-1-7" data-name="path-1" class="cls-2" cx="71.15" cy="54.57" r="3"/><circle class="cls-3" cx="71.15" cy="54.57" r="2.25"/><circle id="path-1-8" data-name="path-1" class="cls-4" cx="71.15" cy="54.57" r="3"/><circle id="path-1-9" data-name="path-1" class="cls-2" cx="3.5" cy="45.28" r="3"/><circle class="cls-3" cx="3.5" cy="45.28" r="2.25"/><circle id="path-1-10" data-name="path-1" class="cls-4" cx="3.5" cy="45.28" r="3"/></g></g></svg>