<svg xmlns="http://www.w3.org/2000/svg" viewBox="0 0 84.4 74"><defs><style>.cls-1,.cls-3,.cls-4{fill:none;}.cls-1{stroke:#3f3f3f;stroke-linecap:round;stroke-linejoin:round;}.cls-2{fill:#c2c2c2;}.cls-3,.cls-4{stroke:#151515;}.cls-3{stroke-width:1.5px;}</style></defs><title>medical-care</title><g id="Layer_2" data-name="Layer 2"><g id="Layer_1-2" data-name="Layer 1"><g id="Group-7"><path id="Path-332" class="cls-1" d="M35.35,50.3v8.78c0,10.34,7.55,14.42,15.56,14.42s15.67-3.91,15.67-15V40.58"/><circle id="Oval-26" class="cls-1" cx="35.23" cy="45.47" r="4.47"/><path id="Path-333-Copy" class="cls-1" d="M78.24,3.5h3A2.46,2.46,0,0,1,83.9,6.18v14.2c0,13.14-10.61,20.27-17.71,20.27"/><path id="Path-334" class="cls-1" d="M82.88,27.05c-.9,2.49-5.82,8-16.35,8"/><path id="Path-334-2" data-name="Path-334" class="cls-1" d="M49.78,27.05c.9,2.49,6.26,8,16.79,8"/><path id="Path-333" class="cls-1" d="M55,3.5H51.45a2.46,2.46,0,0,0-2.68,2.68v14.2c0,13.14,10.61,20.27,17.72,20.27"/></g><polyline id="Page-1" class="cls-1" points="3.5 22.64 13.05 22.64 16.46 6.79 22.6 36.95 28.14 14.72 30.56 22.64 40.1 22.64"/><g id="Oval-Copy-546"><circle id="path-1" class="cls-2" cx="39.69" cy="22.49" r="3"/><circle class="cls-3" cx="39.69" cy="22.49" r="2.25"/><circle id="path-1-2" data-name="path-1" class="cls-4" cx="39.69" cy="22.49" r="3"/></g><g id="Oval-Copy-547"><circle id="path-2" class="cls-2" cx="3.5" cy="22.89" r="3"/><circle class="cls-3" cx="3.5" cy="22.89" r="2.25"/><circle id="path-2-2" data-name="path-2" class="cls-4" cx="3.5" cy="22.89" r="3"/></g><g id="Oval-Copy-545"><circle id="path-3" class="cls-2" cx="76.96" cy="3.5" r="3"/><circle class="cls-3" cx="76.96" cy="3.5" r="2.25"/><circle id="path-3-2" data-name="path-3" class="cls-4" cx="76.96" cy="3.5" r="3"/></g><g id="Oval-Copy-545-2" data-name="Oval-Copy-545"><circle id="path-4" class="cls-2" cx="55.38" cy="3.5" r="3"/><circle class="cls-3" cx="55.38" cy="3.5" r="2.25"/><circle id="path-4-2" data-name="path-4" class="cls-4" cx="55.38" cy="3.5" r="3"/></g></g></g></svg>