<svg xmlns="http://www.w3.org/2000/svg" viewBox="0 0 75.9 76"><defs><style>.cls-1,.cls-3,.cls-4{fill:none;}.cls-1{stroke:#3f3f3f;stroke-linecap:round;stroke-linejoin:round;}.cls-2{fill:#c2c2c2;}.cls-3,.cls-4{stroke:#151515;}.cls-3{stroke-width:1.5px;}</style></defs><title>on-job-training</title><g id="Layer_2" data-name="Layer 2"><g id="Layer_1-2" data-name="Layer 1"><path class="cls-1" d="M5.81,6.3H70.09V52.07H5.81V6.3ZM.5,6.1H75.4M38,52.07V72M38,6.1V.5m.14,61.89L58.8,75.5m-21-13.11L17.1,75.5"/><path class="cls-1" d="M33.3,18.66H57M18.86,17.23l3,3.92,3.44-4.49m8,12H57M18.86,27.24l3,3.91,3.44-4.49m8,12H57M18.86,37.25l3,3.91,3.44-4.49"/><circle id="path-1" class="cls-2" cx="5.81" cy="52.07" r="3"/><circle class="cls-3" cx="5.81" cy="52.07" r="2.25"/><circle id="path-1-2" data-name="path-1" class="cls-4" cx="5.81" cy="52.07" r="3"/><circle id="path-1-3" data-name="path-1" class="cls-2" cx="70.09" cy="18.66" r="3"/><circle class="cls-3" cx="70.09" cy="18.66" r="2.25"/><circle id="path-1-4" data-name="path-1" class="cls-4" cx="70.09" cy="18.66" r="3"/><circle id="path-1-5" data-name="path-1" class="cls-2" cx="37.95" cy="63.14" r="3"/><circle class="cls-3" cx="37.95" cy="63.14" r="2.25"/><circle id="path-1-6" data-name="path-1" class="cls-4" cx="37.95" cy="63.14" r="3"/><circle id="path-1-7" data-name="path-1" class="cls-2" cx="49.04" cy="38.67" r="3"/><circle class="cls-3" cx="49.04" cy="38.67" r="2.25"/><circle id="path-1-8" data-name="path-1" class="cls-4" cx="49.04" cy="38.67" r="3"/><circle id="path-1-9" data-name="path-1" class="cls-2" cx="20.1" cy="6.1" r="3"/><circle class="cls-3" cx="20.1" cy="6.1" r="2.25"/><circle id="path-1-10" data-name="path-1" class="cls-4" cx="20.1" cy="6.1" r="3"/></g></g></svg>