<?xml version="1.0" encoding="UTF-8"?>
<svg width="69px" height="79px" viewBox="0 0 69 79" version="1.1" xmlns="http://www.w3.org/2000/svg" xmlns:xlink="http://www.w3.org/1999/xlink">
    <!-- Generator: Sketch 47.1 (45422) - http://www.bohemiancoding.com/sketch -->
    <title>story-telling</title>
    <desc>Created with Sketch.</desc>
    <defs>
        <circle id="path-1" cx="12" cy="13" r="3"></circle>
        <circle id="path-2" cx="29" cy="28" r="3"></circle>
        <circle id="path-3" cx="12" cy="42.5" r="3"></circle>
        <circle id="path-4" cx="29" cy="58" r="3"></circle>
    </defs>
    <g id="Version-2" stroke="none" stroke-width="1" fill="none" fill-rule="evenodd">
        <g id="full-preview-6" transform="translate(-597.000000, -1386.000000)">
            <g id="story-telling" transform="translate(598.000000, 1387.000000)">
                <path d="M5.06514942,14.8917507 C2.66154356,14.8917507 0.0601308515,16.8095833 0.0601308515,19.7871788 C0.0601308515,22.7647743 0.0601308515,70.0824037 0.0601308515,72.8223437 C0.0601308515,75.5622838 1.53999037,77.062561 4.22689917,77.062561 C6.91380796,77.062561 33.0686321,77.062561 35.5367315,77.062561 C38.004831,77.062561 39.8041521,75.6184544 39.8041521,72.8223437 C39.8041521,70.0262331 39.8041521,22.4600973 39.8041521,19.7801837 C39.8041521,17.10027 37.6846264,14.9892939 34.7311252,14.9892939" id="Path-262" stroke="#3F3F3F" stroke-linecap="round" stroke-linejoin="round"></path>
                <path d="M61.9939376,14.5031654 L47.5510787,14.5031654" id="Path-264" stroke="#3F3F3F" stroke-linecap="round" stroke-linejoin="round"></path>
                <path d="M41.1012062,0.24177815 C37.9327484,0.24177815 34.8355857,2.38063474 34.8355857,6.40660203 C34.8355857,9.09058023 34.8355857,29.202236 34.8355857,66.7415693" id="Path-265" stroke="#3F3F3F" stroke-linecap="round" stroke-linejoin="round"></path>
                <path d="M39.9307413,66.874623 L0.332005615,66.874623" id="Path-266" stroke="#3F3F3F" stroke-linecap="round" stroke-linejoin="round"></path>
                <path d="M11.1272727,13.0727273 L28.8501594,13.0727273" id="Path-268" stroke="#3F3F3F" stroke-linecap="round" stroke-linejoin="round"></path>
                <path d="M11.1272727,20.4909091 L28.8501594,20.4909091" id="Path-268-Copy" stroke="#3F3F3F" stroke-linecap="round" stroke-linejoin="round"></path>
                <path d="M11.1272727,27.9090909 L28.8501594,27.9090909" id="Path-268-Copy-2" stroke="#3F3F3F" stroke-linecap="round" stroke-linejoin="round"></path>
                <path d="M11.1272727,35.3272727 L28.8501594,35.3272727" id="Path-268-Copy-3" stroke="#3F3F3F" stroke-linecap="round" stroke-linejoin="round"></path>
                <path d="M11.1272727,42.7454545 L28.8501594,42.7454545" id="Path-268-Copy-4" stroke="#3F3F3F" stroke-linecap="round" stroke-linejoin="round"></path>
                <path d="M11.1272727,50.1636364 L28.8501594,50.1636364" id="Path-268-Copy-5" stroke="#3F3F3F" stroke-linecap="round" stroke-linejoin="round"></path>
                <path d="M11.1272727,57.5818182 L28.8501594,57.5818182" id="Path-268-Copy-6" stroke="#3F3F3F" stroke-linecap="round" stroke-linejoin="round"></path>
                <path d="M51.4558006,60.006745 L39.8924427,60.006745" id="Path-270" stroke="#3F3F3F" stroke-linecap="round" stroke-linejoin="round"></path>
                <path d="M5.07038241,66.7812061 C5.07038241,29.1267256 5.07038241,9.01882095 5.07038241,6.45749217 C5.07038241,2.61549902 7.5511277,0.213991293 11.4764347,0.213991293 C15.4017418,0.213991293 37.193671,0.213991293 41.1037024,0.213991293 C45.0137339,0.213991293 47.0205776,3.34842078 47.0205776,6.45749217 C47.0205776,9.56656357 47.0205776,49.7353546 47.0205776,54.3242316 C47.0205776,58.9131085 50.3058889,59.9848474 51.7438476,59.9848474 C53.1818062,59.9848474 57.1106688,59.3500204 57.1106688,54.3242316 C57.1106688,49.2984428 57.1106688,23.1521503 57.1106688,19.5626785 C57.1106688,15.9732066 59.644747,14.5656412 62.1564762,14.5656412 C64.6682054,14.5656412 66.9757455,16.0716456 66.9757455,19.5626785 C66.9757455,21.8900337 66.9757455,28.2545011 66.9757455,38.6560808" id="Path-263" stroke="#3F3F3F" stroke-linecap="round" stroke-linejoin="round"></path>
                <path d="M15.5262159,71.899609 L24.1593121,71.899609" id="Path-267" stroke="#3F3F3F" stroke-linecap="round" stroke-linejoin="round"></path>
                <path d="M67.1151791,38.4484655 L57.1537753,38.4484655" id="Path-269" stroke="#3F3F3F" stroke-linecap="round" stroke-linejoin="round"></path>
                <g id="Oval-Copy-496" transform="translate(12.000000, 13.000000) rotate(-90.000000) translate(-12.000000, -13.000000) ">
                    <use fill="#C2C2C2" fill-rule="evenodd" xlink:href="#path-1"></use>
                    <circle stroke="#151515" stroke-width="1.5" cx="12" cy="13" r="2.25"></circle>
                    <use stroke="#151515" stroke-width="1" xlink:href="#path-1"></use>
                </g>
                <g id="Oval-Copy-499" transform="translate(29.000000, 28.000000) rotate(-90.000000) translate(-29.000000, -28.000000) ">
                    <use fill="#C2C2C2" fill-rule="evenodd" xlink:href="#path-2"></use>
                    <circle stroke="#151515" stroke-width="1.5" cx="29" cy="28" r="2.25"></circle>
                    <use stroke="#151515" stroke-width="1" xlink:href="#path-2"></use>
                </g>
                <g id="Oval-Copy-500" transform="translate(12.000000, 42.500000) rotate(-90.000000) translate(-12.000000, -42.500000) ">
                    <use fill="#C2C2C2" fill-rule="evenodd" xlink:href="#path-3"></use>
                    <circle stroke="#151515" stroke-width="1.5" cx="12" cy="42.5" r="2.25"></circle>
                    <use stroke="#151515" stroke-width="1" xlink:href="#path-3"></use>
                </g>
                <g id="Oval-Copy-501" transform="translate(29.000000, 58.000000) rotate(-90.000000) translate(-29.000000, -58.000000) ">
                    <use fill="#C2C2C2" fill-rule="evenodd" xlink:href="#path-4"></use>
                    <circle stroke="#151515" stroke-width="1.5" cx="29" cy="58" r="2.25"></circle>
                    <use stroke="#151515" stroke-width="1" xlink:href="#path-4"></use>
                </g>
            </g>
        </g>
    </g>
</svg>