<?xml version="1.0" encoding="UTF-8"?>
<svg width="80px" height="64px" viewBox="0 0 80 64" version="1.1" xmlns="http://www.w3.org/2000/svg" xmlns:xlink="http://www.w3.org/1999/xlink">
    <!-- Generator: Sketch 47.1 (45422) - http://www.bohemiancoding.com/sketch -->
    <title>subscription-model</title>
    <desc>Created with Sketch.</desc>
    <defs>
        <circle id="path-1" cx="39" cy="58" r="3"></circle>
        <circle id="path-2" cx="10" cy="32" r="3"></circle>
        <circle id="path-3" cx="68" cy="32" r="3"></circle>
        <circle id="path-4" cx="39" cy="20" r="3"></circle>
    </defs>
    <g id="Version-2" stroke="none" stroke-width="1" fill="none" fill-rule="evenodd">
        <g id="full-preview-6" transform="translate(-587.000000, -1223.000000)">
            <g id="subscription-model" transform="translate(588.000000, 1224.000000)">
                <path d="M39,62.483765 C60.2363863,62.483765 71.0928913,62.483765 71.5695149,62.483765 C72.2844502,62.483765 72.8372033,62.3119651 73.5258635,61.5916116 C74.2145238,60.8712581 76.5613321,58.6636447 76.9947051,58.2486142 C77.4280781,57.8335838 77.6268283,57.1853238 77.6268283,56.851558 C77.6268283,56.5177923 77.6268283,55.9488125 77.6268283,55.6318856 C77.6268283,55.3149587 77.3219696,55 76.7174764,55 C76.1129832,55 48.5889361,55 48.1889406,55 C47.7889451,55 47.4130439,55.4088118 47.1642448,55.6318856 C46.9154457,55.8549595 45.7083253,56.9262603 45.4827149,57.1381841 C45.2571045,57.350108 45.03594,57.454893 44.6548084,57.454893 C44.4007206,57.454893 42.5279621,57.454893 39.0365328,57.454893" id="Path-238-Copy" stroke="#E5E5E5" stroke-linecap="round" stroke-linejoin="round"></path>
                <path d="M72.5691932,54.9612406 C72.5691932,29.7119092 72.5691932,16.2090543 72.5691932,14.452676 C72.5691932,11.8181085 70.8980196,10 68.4681045,10 C66.8481611,10 61.3587929,10 52,10" id="Path-239-Copy" stroke="#E5E5E5" stroke-linecap="round" stroke-linejoin="round"></path>
                <path d="M0,62.483765 C21.2363863,62.483765 32.0928913,62.483765 32.5695149,62.483765 C33.2844502,62.483765 33.8372033,62.3119651 34.5258635,61.5916116 C35.2145238,60.8712581 37.5613321,58.6636447 37.9947051,58.2486142 C38.4280781,57.8335838 38.6268283,57.1853238 38.6268283,56.851558 C38.6268283,56.5177923 38.6268283,55.9488125 38.6268283,55.6318856 C38.6268283,55.3149587 38.3219696,55 37.7174764,55 C37.1129832,55 9.5889361,55 9.18894058,55 C8.78894507,55 8.41304394,55.4088118 8.16424481,55.6318856 C7.91544569,55.8549595 6.70832533,56.9262603 6.48271491,57.1381841 C6.25710449,57.350108 6.03594002,57.454893 5.65480836,57.454893 C5.40072058,57.454893 3.52796207,57.454893 0.0365328212,57.454893" id="Path-238-Copy-2" stroke="#E5E5E5" stroke-linecap="round" stroke-linejoin="round" transform="translate(19.313414, 58.741882) scale(-1, 1) translate(-19.313414, -58.741882) "></path>
                <path d="M25.6887461,54.9612406 C25.6887461,29.7119092 25.6887461,16.2090543 25.6887461,14.452676 C25.6887461,11.8181085 24.0175725,10 21.5876574,10 C19.967714,10 14.4384949,10 5,10" id="Path-239-Copy-2" stroke="#E5E5E5" stroke-linecap="round" stroke-linejoin="round" transform="translate(15.344373, 32.480620) scale(-1, 1) translate(-15.344373, -32.480620) "></path>
                <path d="M51.6474923,14 C61.1593849,14 66.2603648,14 66.950432,14 C67.9855328,14 68.2430188,14.713476 68.2430188,15.4064598 C68.2430188,16.0994436 68.2430188,48.300541 68.2430188,48.9281939 C68.2430188,49.5558467 67.8050323,50 67.1302048,50 C66.6803199,50 57.3035849,50 39,50" id="Path-240-Copy" stroke="#E5E5E5" stroke-linecap="round" stroke-linejoin="round"></path>
                <path d="M22.9522863,14 C31.9718058,14 36.8265991,14 37.5166663,14 C38.5517671,14 38.8092531,14.713476 38.8092531,15.4064598 C38.8092531,16.0994436 38.8092531,48.300541 38.8092531,48.9281939 C38.8092531,49.5558467 38.3712666,50 37.6964392,50 C37.2465542,50 28.0144078,50 10,50" id="Path-240-Copy-2" stroke="#E5E5E5" stroke-linecap="round" stroke-linejoin="round" transform="translate(24.404627, 32.000000) scale(-1, 1) translate(-24.404627, -32.000000) "></path>
                <g id="Oval-Copy-486" transform="translate(39.000000, 58.000000) rotate(-90.000000) translate(-39.000000, -58.000000) ">
                    <use fill="#515151" fill-rule="evenodd" xlink:href="#path-1"></use>
                    <circle stroke="#FFFFFF" stroke-width="1.5" cx="39" cy="58" r="2.25"></circle>
                    <use stroke="#FFFFFF" stroke-width="1" xlink:href="#path-1"></use>
                </g>
                <path d="M58.5474905,9.58842487 C58.5474905,7.05716345 58.5474905,5.05836269 58.5474905,3.59202261 C58.5474905,1.39251248 57.0762852,0 55.1423475,0 C53.2084098,6.10724e-16 51.687222,1.36437194 51.687222,3.40581696 C51.687222,4.76678031 51.687222,6.766005 51.687222,9.40349102 C51.687222,28.1759708 51.687222,37.984714 51.687222,38.8297206 C51.687222,40.0972306 50.7229367,41.1434973 49.5935419,41.1434973 C48.8406121,41.1434973 45.3094314,41.1434973 39,41.1434973" id="Path-249" stroke="#E5E5E5" stroke-linecap="round" stroke-linejoin="round"></path>
                <path d="M25.8602686,0 C41.2092499,7.10381872e-16 49.8190744,7.10381872e-16 51.689742,0 C54.4957433,0 55.2175935,1.93344303 55.2175935,3.40581696 C55.2175935,4.38739959 55.2175935,6.38662428 55.2175935,9.40349102 C55.2175935,28.1759708 55.2175935,37.984714 55.2175935,38.8297206 C55.2175935,40.0972306 54.2533082,41.1434973 53.1239134,41.1434973 C52.3709836,41.1434973 48.6460948,41.1434973 41.949247,41.1434973" id="Path-249-Copy" stroke="#E5E5E5" stroke-linecap="round" stroke-linejoin="round" transform="translate(40.538931, 20.571749) scale(-1, 1) translate(-40.538931, -20.571749) "></path>
                <g id="Group-3" transform="translate(31.500000, 6.000000)" stroke="#E5E5E5" stroke-linecap="round" stroke-linejoin="round">
                    <path d="M7.66666667,0 L7.66666667,2.66666667" id="Path-57"></path>
                    <path d="M7.66666667,25.3333333 L7.66666667,28" id="Path-57-Copy"></path>
                    <path d="M14.937324,8.79519397 C14.7400352,5.21298523 12.6136611,2.44943097 7.00873701,2.68012412 C1.40381288,2.91081727 0.0170936119,7.47126025 1.40381288,10.1851372 C2.79053215,12.8990142 5.69311657,13.3393047 7.92086821,13.7843587 C10.1486199,14.2294128 14.949432,14.9772941 15.2980704,18.8718573 C15.6467089,22.7664205 13.3618628,24.5690935 10.581658,25.101253 C7.80145326,25.6334124 0.604686522,25.8379059 0,18.8718573" id="Path-56"></path>
                </g>
                <g id="Oval-Copy-502" transform="translate(10.000000, 32.000000) rotate(-360.000000) translate(-10.000000, -32.000000) ">
                    <use fill="#515151" fill-rule="evenodd" xlink:href="#path-2"></use>
                    <circle stroke="#FFFFFF" stroke-width="1.5" cx="10" cy="32" r="2.25"></circle>
                    <use stroke="#FFFFFF" stroke-width="1" xlink:href="#path-2"></use>
                </g>
                <g id="Oval-Copy-504" transform="translate(68.000000, 32.000000) rotate(-360.000000) translate(-68.000000, -32.000000) ">
                    <use fill="#515151" fill-rule="evenodd" xlink:href="#path-3"></use>
                    <circle stroke="#FFFFFF" stroke-width="1.5" cx="68" cy="32" r="2.25"></circle>
                    <use stroke="#FFFFFF" stroke-width="1" xlink:href="#path-3"></use>
                </g>
                <g id="Oval-Copy-503" transform="translate(39.000000, 20.000000) rotate(-360.000000) translate(-39.000000, -20.000000) ">
                    <use fill="#515151" fill-rule="evenodd" xlink:href="#path-4"></use>
                    <circle stroke="#FFFFFF" stroke-width="1.5" cx="39" cy="20" r="2.25"></circle>
                    <use stroke="#FFFFFF" stroke-width="1" xlink:href="#path-4"></use>
                </g>
            </g>
        </g>
    </g>
</svg>