<?xml version="1.0" encoding="UTF-8"?>
<svg width="73px" height="82px" viewBox="0 0 73 82" version="1.1" xmlns="http://www.w3.org/2000/svg" xmlns:xlink="http://www.w3.org/1999/xlink">
    <!-- Generator: Sketch 47.1 (45422) - http://www.bohemiancoding.com/sketch -->
    <title>talent-acquisition-user</title>
    <desc>Created with Sketch.</desc>
    <defs>
        <circle id="path-1" cx="55" cy="63" r="3"></circle>
        <circle id="path-2" cx="52" cy="77" r="3"></circle>
        <circle id="path-3" cx="3" cy="77" r="3"></circle>
        <circle id="path-4" cx="16" cy="37" r="3"></circle>
        <circle id="path-5" cx="47" cy="23" r="3"></circle>
        <circle id="path-6" cx="20" cy="3" r="3"></circle>
    </defs>
    <g id="Version-2" stroke="none" stroke-width="1" fill="none" fill-rule="evenodd">
        <g id="full-preview-3" transform="translate(-404.000000, -1382.000000)">
            <g id="talent-acquisition-user" transform="translate(405.000000, 1383.000000)">
                <g id="Group-3-Copy-15" transform="translate(1.000000, 1.000000)" stroke="#3F3F3F" stroke-linejoin="round" stroke-linecap="round">
                    <path d="M26.3103459,76.3000031 C39.9872345,76.3000031 48.1567013,76.3000031 50.8187464,76.3000031 C51.3725831,76.3000031 51.8394507,75.5546334 52.1591105,74.2536671" id="Path-105-Copy-2"></path>
                    <path d="M0,76.3000031 C13.6768886,76.3000031 21.8463555,76.3000031 24.5084005,76.3000031 C27.8101327,76.3000031 28.0209639,49.6731851 12.3777847,36.8344842" id="Path-105-Copy-3" transform="translate(13.155173, 56.567244) scale(-1, 1) translate(-13.155173, -56.567244) "></path>
                    <circle id="Oval-22-Copy" cx="26.3103459" cy="19.7327594" r="19.7327594"></circle>
                </g>
                <path d="M59.01111,54.505555 C59.01111,61.4117477 53.4117477,67.01111 46.505555,67.01111 C39.5993622,67.01111 34,61.4117477 34,54.505555 C34,47.5993622 39.5993622,42 46.505555,42 C53.4117477,42 59.01111,47.5993622 59.01111,54.505555 Z" id="Stroke-1" stroke="#3F3F3F" stroke-linecap="round" stroke-linejoin="round"></path>
                <path d="M56,64 L70.6064882,78.6064882" id="Stroke-3" stroke="#3F3F3F" stroke-linecap="round" stroke-linejoin="round"></path>
                <g id="Oval-Copy-120" transform="translate(55.000000, 63.000000) rotate(-90.000000) translate(-55.000000, -63.000000) ">
                    <use fill="#C2C2C2" fill-rule="evenodd" xlink:href="#path-1"></use>
                    <circle stroke="#151515" stroke-width="1.5" cx="55" cy="63" r="2.25"></circle>
                    <use stroke="#151515" stroke-width="1" xlink:href="#path-1"></use>
                </g>
                <g id="Oval-Copy-123" transform="translate(52.000000, 77.000000) rotate(-90.000000) translate(-52.000000, -77.000000) ">
                    <use fill="#C2C2C2" fill-rule="evenodd" xlink:href="#path-2"></use>
                    <circle stroke="#151515" stroke-width="1.5" cx="52" cy="77" r="2.25"></circle>
                    <use stroke="#151515" stroke-width="1" xlink:href="#path-2"></use>
                </g>
                <g id="Oval-Copy-124" transform="translate(3.000000, 77.000000) rotate(-90.000000) translate(-3.000000, -77.000000) ">
                    <use fill="#C2C2C2" fill-rule="evenodd" xlink:href="#path-3"></use>
                    <circle stroke="#151515" stroke-width="1.5" cx="3" cy="77" r="2.25"></circle>
                    <use stroke="#151515" stroke-width="1" xlink:href="#path-3"></use>
                </g>
                <g id="Oval-Copy-125" transform="translate(16.000000, 37.000000) rotate(-90.000000) translate(-16.000000, -37.000000) ">
                    <use fill="#C2C2C2" fill-rule="evenodd" xlink:href="#path-4"></use>
                    <circle stroke="#151515" stroke-width="1.5" cx="16" cy="37" r="2.25"></circle>
                    <use stroke="#151515" stroke-width="1" xlink:href="#path-4"></use>
                </g>
                <g id="Oval-Copy-126" transform="translate(47.000000, 23.000000) rotate(-90.000000) translate(-47.000000, -23.000000) ">
                    <use fill="#C2C2C2" fill-rule="evenodd" xlink:href="#path-5"></use>
                    <circle stroke="#151515" stroke-width="1.5" cx="47" cy="23" r="2.25"></circle>
                    <use stroke="#151515" stroke-width="1" xlink:href="#path-5"></use>
                </g>
                <g id="Oval-Copy-127" transform="translate(20.000000, 3.000000) rotate(-90.000000) translate(-20.000000, -3.000000) ">
                    <use fill="#C2C2C2" fill-rule="evenodd" xlink:href="#path-6"></use>
                    <circle stroke="#151515" stroke-width="1.5" cx="20" cy="3" r="2.25"></circle>
                    <use stroke="#151515" stroke-width="1" xlink:href="#path-6"></use>
                </g>
            </g>
        </g>
    </g>
</svg>