<?xml version="1.0" encoding="UTF-8"?>
<svg width="77px" height="78px" viewBox="0 0 77 78" version="1.1" xmlns="http://www.w3.org/2000/svg" xmlns:xlink="http://www.w3.org/1999/xlink">
    <!-- Generator: Sketch 47.1 (45422) - http://www.bohemiancoding.com/sketch -->
    <title>television-box</title>
    <desc>Created with Sketch.</desc>
    <defs>
        <circle id="path-1" cx="23.5972318" cy="9" r="3"></circle>
        <circle id="path-2" cx="58.5972318" cy="3" r="3"></circle>
    </defs>
    <g id="Version-2" stroke="none" stroke-width="1" fill="none" fill-rule="evenodd">
        <g id="full-preview-8" transform="translate(-400.000000, -714.000000)">
            <g id="television-box" transform="translate(401.000000, 715.000000)">
                <path d="M37.5528672,23.6100367 C20.0738543,23.6100367 9.90046303,23.6100367 7.03269354,23.6100367 C2.7310393,23.6100367 0,26.441592 0,30.4945895 C2.03999699e-16,34.547587 2.34794219e-16,64.4272049 0,68.7429741 C0,73.0587434 1.61638176,76.2068169 7.03269354,76.2068169 C10.6435681,76.2068169 20.824502,76.2068169 37.5754953,76.2068169" id="Path-258" stroke="#3F3F3F" stroke-linecap="round" stroke-linejoin="round"></path>
                <path d="M37.5268829,30.2875629 C18.8799443,30.2875629 9.20135548,30.2875629 8.4911166,30.2875629 C7.42575827,30.2875629 6.54872402,31.2020604 6.54872402,32.1532324 C6.54872402,33.1044044 6.54872402,66.6216648 6.54872402,67.5918822 C6.54872402,68.5620996 7.243434,69.6397426 8.66169155,69.6397426 C9.60719658,69.6397426 19.2328415,69.6397426 37.5386264,69.6397426" id="Path-259" stroke="#3F3F3F" stroke-linecap="round" stroke-linejoin="round"></path>
                <path d="M74.8841441,23.6100367 C57.4051311,23.6100367 47.2317399,23.6100367 44.3639704,23.6100367 C40.0623161,23.6100367 37.3312768,26.441592 37.3312768,30.4945895 C37.3312768,34.547587 37.3312768,64.4272049 37.3312768,68.7429741 C37.3312768,73.0587434 38.9476586,76.2068169 44.3639704,76.2068169 C47.9748449,76.2068169 58.1557788,76.2068169 74.9067721,76.2068169" id="Path-258" stroke="#3F3F3F" stroke-linecap="round" stroke-linejoin="round" transform="translate(56.119024, 49.908427) scale(-1, 1) translate(-56.119024, -49.908427) "></path>
                <path d="M68.3463045,30.2875629 C49.6993659,30.2875629 40.0207771,30.2875629 39.3105382,30.2875629 C38.2451799,30.2875629 37.3681456,31.2020604 37.3681456,32.1532324 C37.3681456,33.1044044 37.3681456,66.6216648 37.3681456,67.5918822 C37.3681456,68.5620996 38.0628556,69.6397426 39.4811132,69.6397426 C40.4266182,69.6397426 50.0522632,69.6397426 68.3580481,69.6397426" id="Path-259" stroke="#3F3F3F" stroke-linecap="round" stroke-linejoin="round" transform="translate(52.863097, 49.963653) scale(-1, 1) translate(-52.863097, -49.963653) "></path>
                <path d="M24.379806,10.2933357 L37.5281687,23.5466535" id="Path-260" stroke="#3F3F3F" stroke-linecap="round" stroke-linejoin="round"></path>
                <path d="M57.8105289,3.44285714 L37.5281687,23.5466535" id="Path-260" stroke="#3F3F3F" stroke-linecap="round" stroke-linejoin="round"></path>
                <path d="M11.3962432,42.0402484 C13.5648679,42.0402484 13.7227912,38.4571429 17.1862519,38.4571429 C20.6497126,38.4571429 20.6722945,42.0516343 23.6476067,42.0516343 C26.6229189,42.0516343 26.7593593,38.4571429 30.2223653,38.4571429 C33.6853714,38.4571429 33.408885,42.0516343 36.713438,42.0516343 C40.017991,42.0516343 40.0263406,38.719945 43.1458735,38.719945 C46.2654064,38.719945 46.2988049,42.0516343 49.7088668,42.0516343 C53.1189286,42.0516343 52.8318154,38.719945 56.1367479,38.719945 C59.4416804,38.719945 59.2314218,42.0516343 61.9418232,42.0516343" id="Path-261" stroke="#3F3F3F" stroke-linecap="round" stroke-linejoin="round"></path>
                <path d="M11.3962432,51.811677 C13.5648679,51.811677 13.7227912,48.2285714 17.1862519,48.2285714 C20.6497126,48.2285714 20.6722945,51.8230628 23.6476067,51.8230628 C26.6229189,51.8230628 26.7593593,48.2285714 30.2223653,48.2285714 C33.6853714,48.2285714 33.408885,51.8230628 36.713438,51.8230628 C40.017991,51.8230628 40.0263406,48.4913736 43.1458735,48.4913736 C46.2654064,48.4913736 46.2988049,51.8230628 49.7088668,51.8230628 C53.1189286,51.8230628 52.8318154,48.4913736 56.1367479,48.4913736 C59.4416804,48.4913736 59.2314218,51.8230628 61.9418232,51.8230628" id="Path-261-Copy" stroke="#3F3F3F" stroke-linecap="round" stroke-linejoin="round"></path>
                <path d="M11.3962432,61.5831056 C13.5648679,61.5831056 13.7227912,58 17.1862519,58 C20.6497126,58 20.6722945,61.5944914 23.6476067,61.5944914 C26.6229189,61.5944914 26.7593593,58 30.2223653,58 C33.6853714,58 33.408885,61.5944914 36.713438,61.5944914 C40.017991,61.5944914 40.0263406,58.2628022 43.1458735,58.2628022 C46.2654064,58.2628022 46.2988049,61.5944914 49.7088668,61.5944914 C53.1189286,61.5944914 52.8318154,58.2628022 56.1367479,58.2628022 C59.4416804,58.2628022 59.2314218,61.5944914 61.9418232,61.5944914" id="Path-261-Copy-2" stroke="#3F3F3F" stroke-linecap="round" stroke-linejoin="round"></path>
                <g id="Oval-Copy-492" transform="translate(23.597232, 9.000000) rotate(-90.000000) translate(-23.597232, -9.000000) ">
                    <use fill="#C2C2C2" fill-rule="evenodd" xlink:href="#path-1"></use>
                    <circle stroke="#151515" stroke-width="1.5" cx="23.5972318" cy="9" r="2.25"></circle>
                    <use stroke="#151515" stroke-width="1" xlink:href="#path-1"></use>
                </g>
                <g id="Oval-Copy-493" transform="translate(58.597232, 3.000000) rotate(-90.000000) translate(-58.597232, -3.000000) ">
                    <use fill="#C2C2C2" fill-rule="evenodd" xlink:href="#path-2"></use>
                    <circle stroke="#151515" stroke-width="1.5" cx="58.5972318" cy="3" r="2.25"></circle>
                    <use stroke="#151515" stroke-width="1" xlink:href="#path-2"></use>
                </g>
            </g>
        </g>
    </g>
</svg>